# File created by Blade
# Date/Time:  Mon Sep 29 18:17:19 2014
#---------------------------------------------------------
:version 1.10
:name HOM
:units
  mass 1.0
  length 1.000000
  angle deg
:documentation
     Acclaim Skeleton File
:root
   axis xyz
   order TX TY TZ RX RY RZ
   position 0.000000 0.000000 0.000000
   orientation 0 0 0
:bonedata
   begin
      id 1
      name Spine_dum
      direction 0.000000 1.000000 0.000000
      length 7.508948
      axis 0.0 0.0 0.0 xyz
   end
   begin
      id 2
      name LeftUpLeg_dum
      direction 1.000000 0.000000 0.000000
      length 3.000560
      axis 0.0 0.0 0.0 xyz
   end
   begin
      id 3
      name RightUpLeg_dum
      direction -1.000000 0.000000 0.000000
      length 3.000560
      axis 0.0 0.0 0.0 xyz
   end
   begin
      id 4
      name Spine
      direction 0.000000 1.000000 0.000000
      length 0.000000
      axis 0.0 0.0 0.0 xyz
      dof rx ry rz
   end
   begin
      id 5
      name Spine_dum1
      direction 0.000000 1.000000 0.000000
      length 13.861154
      axis 0.0 0.0 0.0 xyz
   end
   begin
      id 6
      name Spine_dum2
      direction 0.000000 1.000000 0.000000
      length 8.204781
      axis 0.0 0.0 0.0 xyz
   end
   begin
      id 7
      name Spine_dum3
      direction 0.000000 1.000000 0.000000
      length 8.204781
      axis 0.0 0.0 0.0 xyz
   end
   begin
      id 8
      name Head
      direction 0.000000 1.000000 0.000000
      length 4.527550
      axis 0.0 0.0 0.0 xyz
      dof rx ry rz
   end
   begin
      id 9
      name LeftShoulder
      direction 1.000000 0.000000 0.000000
      length 6.635956
      axis 0.0 0.0 -90.0 xyz
      dof rx ry rz
   end
   begin
      id 10
      name LeftArm
      direction 1.000000 0.000000 0.000000
      length 10.274218
      axis 0.0 0.0 -90.0 xyz
      dof rx ry rz
   end
   begin
      id 11
      name LeftForeArm
      direction 1.000000 0.000000 0.000000
      length 8.522147
      axis 0.0 0.0 -90.0 xyz
      dof ry rz rx
   end
   begin
      id 12
      name LeftHand
      direction 0.000000 0.000000 0.000000
      length 0.000000
      axis 0.0 0.0 -90.0 xyz
      dof rx ry rz
   end
   begin
      id 13
      name LeftHand_dum1
      direction 0.000000 0.000000 0.000000
      length 0.000000
      axis 0.0 0.0 -90.0 xyz
   end
   begin
      id 14
      name LeftHand_dum2
      direction 1.000000 0.000000 0.000000
      length 3.937000
      axis 0.0 0.0 -90.0 xyz
   end
   begin
      id 15
      name LeftHandThumb1
      direction 0.000000 0.000000 1.000000
      length 3.937000
      axis 0.0 0.0 -90.0 xyz
      dof rx rz ry
   end
   begin
      id 16
      name RightShoulder
      direction -1.000000 0.000000 0.000000
      length 6.635956
      axis 0.0 0.0 90.0 xyz
      dof rx ry rz
   end
   begin
      id 17
      name RightArm
      direction -1.000000 0.000000 0.000000
      length 10.274218
      axis 0.0 0.0 90.0 xyz
      dof rx ry rz
   end
   begin
      id 18
      name RightForeArm
      direction -1.000000 0.000000 0.000000
      length 8.522147
      axis 0.0 0.0 90.0 xyz
      dof ry rz rx
   end
   begin
      id 19
      name RightHand
      direction 0.000000 0.000000 0.000000
      length 0.000000
      axis 0.0 0.0 90.0 xyz
      dof rx ry rz
   end
   begin
      id 20
      name RightHand_dum1
      direction 0.000000 0.000000 0.000000
      length 0.000000
      axis 0.0 0.0 90.0 xyz
   end
   begin
      id 21
      name RightHand_dum2
      direction -1.000000 0.000000 0.000000
      length 3.937000
      axis 0.0 0.0 90.0 xyz
   end
   begin
      id 22
      name RightHandThumb1
      direction 0.000000 0.000000 1.000000
      length 3.937000
      axis 0.0 0.0 90.0 xyz
      dof rx rz ry
   end
   begin
      id 23
      name LeftUpLeg
      direction 0.000000 -1.000000 0.000000
      length 16.490845
      axis 0.0 0.0 0.0 xyz
      dof rx ry rz
   end
   begin
      id 24
      name LeftLeg
      direction 0.000000 -1.000000 0.000000
      length 14.556576
      axis 0.0 0.0 0.0 xyz
      dof rx ry rz
   end
   begin
      id 25
      name LeftFoot
      direction 0.000000 -0.258819 0.965926
      length 4.831116
      axis 15.0 0.0 0.0 xyz
      dof rx ry rz
   end
   begin
      id 26
      name LeftToeBase
      direction 0.000000 0.000000 1.000000
      length 2.952750
      axis 0.0 0.0 0.0 xyz
      dof rx ry rz
   end
   begin
      id 27
      name RightUpLeg
      direction 0.000000 -1.000000 0.000000
      length 16.490845
      axis 0.0 0.0 0.0 xyz
      dof rx ry rz
   end
   begin
      id 28
      name RightLeg
      direction 0.000000 -1.000000 0.000000
      length 14.556576
      axis 0.0 0.0 0.0 xyz
      dof rx ry rz
   end
   begin
      id 29
      name RightFoot
      direction 0.000000 -0.258819 0.965926
      length 4.831116
      axis 15.0 0.0 0.0 xyz
      dof rx ry rz
   end
   begin
      id 30
      name RightToeBase
      direction 0.000000 0.000000 1.000000
      length 2.952750
      axis 0.0 0.0 0.0 xyz
      dof rx ry rz
   end
:hierarchy
   begin
      root Spine_dum LeftUpLeg_dum RightUpLeg_dum
      Spine_dum Spine
      LeftUpLeg_dum LeftUpLeg
      RightUpLeg_dum RightUpLeg
      Spine Spine_dum1 Spine_dum2 Spine_dum3
      Spine_dum1 Head
      Spine_dum2 LeftShoulder
      Spine_dum3 RightShoulder
      LeftShoulder LeftArm
      LeftArm LeftForeArm
      LeftForeArm LeftHand
      LeftHand LeftHand_dum1 LeftHand_dum2
      LeftHand_dum1 LeftHandThumb1
      RightShoulder RightArm
      RightArm RightForeArm
      RightForeArm RightHand
      RightHand RightHand_dum1 RightHand_dum2
      RightHand_dum1 RightHandThumb1
      LeftUpLeg LeftLeg
      LeftLeg LeftFoot
      LeftFoot LeftToeBase
      RightUpLeg RightLeg
      RightLeg RightFoot
      RightFoot RightToeBase
   end

# File created by Blade
# Date/Time:  Mon Sep 29 17:58:21 2014
# Frame Rate: 120.000 fps
#------------------------------------------------------
:FULLY-SPECIFIED
:DEGREES
212
root -1.486129 23.916377 -7.361299 41.834257 -1.868863 2.285900
Spine 10.844755 5.567604 2.004702
Head -56.350403 1.280729 0.864123
LeftShoulder 6.796271 -4.402955 17.529208
LeftArm 56.785280 10.197690 -60.299257
LeftForeArm 13.362396 -0.000000 78.045776
LeftHand -24.100986 -0.000000 14.685842
LeftHandThumb1 -26.253704 0.000000 33.147579
RightShoulder -2.961680 31.645853 -23.832437
RightArm 24.532679 -18.527777 71.025320
RightForeArm -19.172415 0.000000 80.218716
RightHand 1.405677 -0.000000 -8.736797
RightHandThumb1 -24.326973 -0.000000 -32.862282
LeftUpLeg -102.702670 41.019321 -25.324129
LeftLeg 79.617871 -0.000000 -0.000000
LeftFoot -22.782502 -10.597023 -19.491219
LeftToeBase 8.211269 -0.000000 -0.000000
RightUpLeg -105.374704 -30.263245 22.065998
RightLeg 87.287342 -0.000000 -0.000000
RightFoot -28.199111 -0.018564 8.854327
RightToeBase 1.399479 -0.000000 -0.000000
213
root -1.426955 23.678006 -7.388757 42.204562 -1.939721 2.198540
Spine 10.704489 5.611142 2.025585
Head -56.712865 1.297392 0.754236
LeftShoulder 6.885950 -4.565127 17.527970
LeftArm 56.830789 9.977214 -59.960521
LeftForeArm 13.363429 -0.000000 78.004087
LeftHand -23.953572 0.000000 14.659258
LeftHandThumb1 -26.253704 0.000000 33.147579
RightShoulder -2.761848 31.722803 -23.711244
RightArm 24.865088 -18.506206 70.686884
RightForeArm -19.307806 0.000000 80.248916
RightHand 1.503131 0.000000 -8.585280
RightHandThumb1 -24.326973 -0.000000 -32.862282
LeftUpLeg -104.264137 41.090012 -26.010066
LeftLeg 81.040897 -0.000000 -0.000000
LeftFoot -23.147985 -10.944945 -19.115084
LeftToeBase 7.957474 -0.000000 -0.000000
RightUpLeg -106.726798 -30.269460 22.596103
RightLeg 88.394555 -0.000000 -0.000000
RightFoot -28.331699 0.357039 8.742143
RightToeBase 1.328560 -0.000000 -0.000000
214
root -1.369568 23.444725 -7.421370 42.633785 -2.002019 2.093925
Spine 10.522179 5.631042 2.044505
Head -57.109814 1.395044 0.623711
LeftShoulder 6.948863 -4.671249 17.540960
LeftArm 56.907162 9.735981 -59.589678
LeftForeArm 13.305842 0.000000 77.967818
LeftHand -23.864156 -0.000000 14.724606
LeftHandThumb1 -26.253704 0.000000 33.147579
RightShoulder -2.506996 31.939383 -23.596171
RightArm 24.995354 -18.493452 70.481878
RightForeArm -19.836026 -0.000000 80.317863
RightHand 1.559439 -0.000000 -8.883836
RightHandThumb1 -24.326973 -0.000000 -32.862282
LeftUpLeg -105.791043 41.096371 -26.595109
LeftLeg 82.384858 -0.000000 -0.000000
LeftFoot -23.494797 -11.344672 -18.961274
LeftToeBase 7.862824 -0.000000 -0.000000
RightUpLeg -108.107705 -30.219155 23.150992
RightLeg 89.435274 -0.000000 -0.000000
RightFoot -28.437739 0.596498 8.554421
RightToeBase 1.248394 -0.000000 -0.000000
215
root -1.310023 23.210067 -7.454355 43.080534 -2.042195 2.001322
Spine 10.297775 5.647888 2.085725
Head -57.443524 1.411402 0.475099
LeftShoulder 7.045700 -4.867095 17.536977
LeftArm 56.885521 9.560761 -59.352530
LeftForeArm 13.289991 0.000000 77.869753
LeftHand -23.878600 0.000000 14.732551
LeftHandThumb1 -26.253704 0.000000 33.147579
RightShoulder -2.251087 32.035813 -23.482378
RightArm 25.215939 -18.439056 70.229604
RightForeArm -20.365849 -0.000000 80.336161
RightHand 1.646184 -0.000000 -9.153587
RightHandThumb1 -24.326973 -0.000000 -32.862282
LeftUpLeg -107.342601 41.056564 -27.226837
LeftLeg 83.692301 -0.000000 -0.000000
LeftFoot -23.918761 -11.709955 -18.859221
LeftToeBase 8.014629 -0.000000 -0.000000
RightUpLeg -109.528361 -30.168183 23.721094
RightLeg 90.491306 -0.000000 -0.000000
RightFoot -28.508286 0.842623 8.432432
RightToeBase 1.121150 -0.000000 -0.000000
216
root -1.249895 22.973407 -7.485642 43.444613 -2.089391 1.912802
Spine 10.208211 5.665588 2.124336
Head -57.882469 1.483494 0.355062
LeftShoulder 7.138098 -5.063842 17.554300
LeftArm 56.903944 9.371509 -59.063552
LeftForeArm 13.205844 0.000000 77.739678
LeftHand -23.706541 0.000000 14.824357
LeftHandThumb1 -26.253704 0.000000 33.147579
RightShoulder -1.977620 32.191845 -23.380963
RightArm 25.377419 -18.362600 69.952532
RightForeArm -20.701984 -0.000000 80.368345
RightHand 1.741677 -0.000000 -9.411696
RightHandThumb1 -24.326973 -0.000000 -32.862282
LeftUpLeg -108.825957 41.052937 -27.832787
LeftLeg 85.039387 -0.000000 -0.000000
LeftFoot -24.302583 -12.019250 -18.619416
LeftToeBase 8.044779 -0.000000 -0.000000
RightUpLeg -110.849720 -30.142906 24.214627
RightLeg 91.542278 -0.000000 -0.000000
RightFoot -28.588832 1.119954 8.344830
RightToeBase 1.095470 -0.000000 -0.000000
217
root -1.191145 22.741534 -7.518665 43.807023 -2.135456 1.822149
Spine 10.150915 5.653212 2.154951
Head -58.339063 1.572587 0.225424
LeftShoulder 7.213285 -5.172787 17.565987
LeftArm 56.969160 9.144406 -58.637277
LeftForeArm 13.175394 0.000000 77.638035
LeftHand -23.640472 -0.000000 15.093528
LeftHandThumb1 -26.253704 0.000000 33.147579
RightShoulder -1.652048 32.338025 -23.258814
RightArm 25.561338 -18.333301 69.658069
RightForeArm -20.700446 -0.000000 80.369272
RightHand 1.695374 -0.000000 -10.014415
RightHandThumb1 -24.326973 -0.000000 -32.862282
LeftUpLeg -110.190535 41.015034 -28.333086
LeftLeg 86.302104 -0.000000 -0.000000
LeftFoot -24.726017 -12.252226 -18.250060
LeftToeBase 7.677422 -0.000000 -0.000000
RightUpLeg -112.146696 -30.094307 24.699323
RightLeg 92.551164 -0.000000 -0.000000
RightFoot -28.640934 1.355567 8.228458
RightToeBase 0.961764 -0.000000 -0.000000
218
root -1.136389 22.505835 -7.548341 44.156980 -2.162644 1.671983
Spine 10.099524 5.707445 2.254286
Head -58.777020 1.590483 0.112606
LeftShoulder 7.339277 -5.209403 17.611476
LeftArm 57.072667 8.872527 -58.309128
LeftForeArm 13.238863 0.000000 77.484626
LeftHand -23.454802 -0.000000 15.075662
LeftHandThumb1 -26.253704 0.000000 33.147579
RightShoulder -1.394349 32.382740 -23.179911
RightArm 25.803222 -18.225810 69.349897
RightForeArm -21.011485 0.000000 80.313976
RightHand 1.685077 0.000000 -10.139696
RightHandThumb1 -24.326973 -0.000000 -32.862282
LeftUpLeg -111.632083 41.026550 -28.830872
LeftLeg 87.576422 -0.000000 -0.000000
LeftFoot -25.114513 -12.548439 -18.112521
LeftToeBase 7.852834 -0.000000 -0.000000
RightUpLeg -113.385770 -30.006171 25.194929
RightLeg 93.566706 -0.000000 -0.000000
RightFoot -28.731635 1.524857 8.087972
RightToeBase 0.911555 -0.000000 -0.000000
219
root -1.083742 22.269341 -7.577951 44.494269 -2.211476 1.506357
Spine 10.081003 5.853546 2.354751
Head -59.259315 1.603296 -0.007735
LeftShoulder 7.501396 -5.271333 17.649167
LeftArm 57.251044 8.644346 -58.065431
LeftForeArm 13.424158 -0.000000 77.233213
LeftHand -23.649084 0.000000 15.280063
LeftHandThumb1 -26.253704 0.000000 33.147579
RightShoulder -1.237774 32.416809 -23.151433
RightArm 26.037754 -18.134675 69.086757
RightForeArm -21.233148 -0.000000 80.179107
RightHand 1.715329 -0.000000 -10.461511
RightHandThumb1 -24.326973 -0.000000 -32.862282
LeftUpLeg -113.060845 41.055722 -29.319147
LeftLeg 88.852535 -0.000000 -0.000000
LeftFoot -25.498781 -12.749235 -17.809364
LeftToeBase 7.698266 -0.000000 -0.000000
RightUpLeg -114.566154 -29.877144 25.616666
RightLeg 94.561071 -0.000000 -0.000000
RightFoot -28.827260 1.689081 7.988814
RightToeBase 0.902778 -0.000000 -0.000000
220
root -1.035018 22.032732 -7.610844 44.892143 -2.284822 1.272483
Spine 9.984481 6.012305 2.487937
Head -59.667867 1.593197 -0.197838
LeftShoulder 7.634249 -5.425086 17.655282
LeftArm 57.241358 8.447288 -57.859536
LeftForeArm 13.628191 -0.000000 76.982292
LeftHand -23.533360 -0.000000 15.168068
LeftHandThumb1 -26.253704 0.000000 33.147579
RightShoulder -1.018651 32.400965 -23.173334
RightArm 26.279381 -18.069260 68.853851
RightForeArm -21.530861 -0.000000 79.974748
RightHand 1.809368 -0.000000 -11.057380
RightHandThumb1 -24.326973 -0.000000 -32.862282
LeftUpLeg -114.579295 41.102879 -29.807504
LeftLeg 90.106014 -0.000000 -0.000000
LeftFoot -25.900255 -12.966870 -17.545944
LeftToeBase 7.679585 -0.000000 -0.000000
RightUpLeg -115.773460 -29.638009 26.098957
RightLeg 95.527528 -0.000000 -0.000000
RightFoot -28.879820 1.817773 7.861076
RightToeBase 0.788717 -0.000000 -0.000000
